<mxfile host="app.diagrams.net" modified="2022-08-10T18:21:37.485Z" agent="5.0 (X11)" etag="dElu3h7wB_XlBhrFqnQm" version="20.2.3" type="github">
  <diagram id="MkEjMD8vB3uJ0JSntzrO" name="Страница 1">
    <mxGraphModel dx="2246" dy="1973" grid="1" gridSize="10" guides="1" tooltips="1" connect="1" arrows="1" fold="1" page="1" pageScale="1" pageWidth="827" pageHeight="1169" math="0" shadow="0">
      <root>
        <mxCell id="0" />
        <mxCell id="1" parent="0" />
        <mxCell id="WKRomC5Ls8OWtYJPz77l-65" value="" style="endArrow=none;html=1;rounded=0;jumpSize=10;" edge="1" parent="1">
          <mxGeometry width="50" height="50" relative="1" as="geometry">
            <mxPoint x="-120" y="400" as="sourcePoint" />
            <mxPoint x="809" y="400" as="targetPoint" />
          </mxGeometry>
        </mxCell>
        <mxCell id="WKRomC5Ls8OWtYJPz77l-2" value="" style="endArrow=none;html=1;rounded=0;jumpSize=10;" edge="1" parent="1">
          <mxGeometry width="50" height="50" relative="1" as="geometry">
            <mxPoint x="-130" y="260" as="sourcePoint" />
            <mxPoint x="799" y="260" as="targetPoint" />
          </mxGeometry>
        </mxCell>
        <mxCell id="WKRomC5Ls8OWtYJPz77l-3" value="&lt;div&gt;Балакирев&lt;/div&gt;" style="ellipse;whiteSpace=wrap;html=1;" vertex="1" parent="1">
          <mxGeometry x="-10" y="130" width="80" height="80" as="geometry" />
        </mxCell>
        <mxCell id="WKRomC5Ls8OWtYJPz77l-4" value="Егоров" style="ellipse;whiteSpace=wrap;html=1;" vertex="1" parent="1">
          <mxGeometry x="80" y="130" width="80" height="80" as="geometry" />
        </mxCell>
        <mxCell id="WKRomC5Ls8OWtYJPz77l-5" value="&lt;div&gt;Гуев&lt;/div&gt;" style="ellipse;whiteSpace=wrap;html=1;" vertex="1" parent="1">
          <mxGeometry x="170" y="130" width="80" height="80" as="geometry" />
        </mxCell>
        <mxCell id="WKRomC5Ls8OWtYJPz77l-6" value="Стартовые курсы на степике закончить" style="shape=document;whiteSpace=wrap;html=1;boundedLbl=1;" vertex="1" parent="1">
          <mxGeometry x="60" y="40" width="120" height="80" as="geometry" />
        </mxCell>
        <mxCell id="WKRomC5Ls8OWtYJPz77l-8" value="" style="endArrow=none;html=1;rounded=0;jumpSize=10;entryX=0.111;entryY=0.944;entryDx=0;entryDy=0;entryPerimeter=0;exitX=0.818;exitY=0.095;exitDx=0;exitDy=0;exitPerimeter=0;" edge="1" parent="1" source="WKRomC5Ls8OWtYJPz77l-3" target="WKRomC5Ls8OWtYJPz77l-6">
          <mxGeometry width="50" height="50" relative="1" as="geometry">
            <mxPoint x="50" y="140" as="sourcePoint" />
            <mxPoint x="100" y="90" as="targetPoint" />
          </mxGeometry>
        </mxCell>
        <mxCell id="WKRomC5Ls8OWtYJPz77l-9" value="" style="endArrow=none;html=1;rounded=0;jumpSize=10;entryX=0.377;entryY=0.958;entryDx=0;entryDy=0;entryPerimeter=0;exitX=0.373;exitY=0.006;exitDx=0;exitDy=0;exitPerimeter=0;" edge="1" parent="1" source="WKRomC5Ls8OWtYJPz77l-4" target="WKRomC5Ls8OWtYJPz77l-6">
          <mxGeometry width="50" height="50" relative="1" as="geometry">
            <mxPoint x="-20" y="130" as="sourcePoint" />
            <mxPoint x="30" y="80" as="targetPoint" />
          </mxGeometry>
        </mxCell>
        <mxCell id="WKRomC5Ls8OWtYJPz77l-10" value="" style="endArrow=none;html=1;rounded=0;jumpSize=10;entryX=0.883;entryY=0.758;entryDx=0;entryDy=0;entryPerimeter=0;" edge="1" parent="1" source="WKRomC5Ls8OWtYJPz77l-5" target="WKRomC5Ls8OWtYJPz77l-6">
          <mxGeometry width="50" height="50" relative="1" as="geometry">
            <mxPoint x="120" y="150" as="sourcePoint" />
            <mxPoint x="170" y="100" as="targetPoint" />
          </mxGeometry>
        </mxCell>
        <mxCell id="WKRomC5Ls8OWtYJPz77l-61" style="edgeStyle=orthogonalEdgeStyle;rounded=0;jumpSize=10;orthogonalLoop=1;jettySize=auto;html=1;exitX=1;exitY=1;exitDx=0;exitDy=0;entryX=0;entryY=0;entryDx=0;entryDy=0;fontSize=12;" edge="1" parent="1" source="WKRomC5Ls8OWtYJPz77l-11" target="WKRomC5Ls8OWtYJPz77l-58">
          <mxGeometry relative="1" as="geometry" />
        </mxCell>
        <mxCell id="WKRomC5Ls8OWtYJPz77l-62" style="edgeStyle=orthogonalEdgeStyle;rounded=0;jumpSize=10;orthogonalLoop=1;jettySize=auto;html=1;exitX=0.5;exitY=1;exitDx=0;exitDy=0;entryX=0.772;entryY=0.084;entryDx=0;entryDy=0;entryPerimeter=0;fontSize=12;" edge="1" parent="1" source="WKRomC5Ls8OWtYJPz77l-11" target="WKRomC5Ls8OWtYJPz77l-56">
          <mxGeometry relative="1" as="geometry" />
        </mxCell>
        <mxCell id="WKRomC5Ls8OWtYJPz77l-11" value="&lt;div&gt;ООП Курс Балакирева&lt;/div&gt;" style="ellipse;whiteSpace=wrap;html=1;" vertex="1" parent="1">
          <mxGeometry x="30" y="230" width="120" height="80" as="geometry" />
        </mxCell>
        <mxCell id="WKRomC5Ls8OWtYJPz77l-12" value="&lt;div&gt;Основной учебник Трепачёва&lt;/div&gt;&lt;div&gt;JS&lt;br&gt;&lt;/div&gt;" style="ellipse;whiteSpace=wrap;html=1;aspect=fixed;" vertex="1" parent="1">
          <mxGeometry x="290" y="135" width="80" height="80" as="geometry" />
        </mxCell>
        <mxCell id="WKRomC5Ls8OWtYJPz77l-54" style="edgeStyle=orthogonalEdgeStyle;rounded=0;jumpSize=10;orthogonalLoop=1;jettySize=auto;html=1;entryX=0;entryY=0.5;entryDx=0;entryDy=0;fontSize=22;" edge="1" parent="1" source="WKRomC5Ls8OWtYJPz77l-13" target="WKRomC5Ls8OWtYJPz77l-51">
          <mxGeometry relative="1" as="geometry">
            <Array as="points">
              <mxPoint x="450" y="265" />
              <mxPoint x="450" y="290" />
            </Array>
          </mxGeometry>
        </mxCell>
        <mxCell id="WKRomC5Ls8OWtYJPz77l-13" value="&lt;div&gt;Учебник Кантора&lt;/div&gt;&lt;div&gt;Часть 1&lt;br&gt;&lt;/div&gt;" style="ellipse;whiteSpace=wrap;html=1;" vertex="1" parent="1">
          <mxGeometry x="320" y="225" width="120" height="80" as="geometry" />
        </mxCell>
        <mxCell id="WKRomC5Ls8OWtYJPz77l-14" value="&lt;div&gt;Учебник практики Трепачёва&lt;/div&gt;&lt;div&gt;JS&lt;br&gt;&lt;/div&gt;" style="ellipse;whiteSpace=wrap;html=1;aspect=fixed;" vertex="1" parent="1">
          <mxGeometry x="410" y="135" width="80" height="80" as="geometry" />
        </mxCell>
        <mxCell id="WKRomC5Ls8OWtYJPz77l-15" value="ПРОХОЖУ СЕЙЧАС" style="text;html=1;strokeColor=none;fillColor=none;align=center;verticalAlign=middle;whiteSpace=wrap;rounded=0;fontSize=22;" vertex="1" parent="1">
          <mxGeometry x="-190" y="95" width="60" height="30" as="geometry" />
        </mxCell>
        <mxCell id="WKRomC5Ls8OWtYJPz77l-17" value="&lt;div&gt;Стартовые учебники по JS&lt;/div&gt;&lt;div&gt;допройти&lt;br&gt;&lt;/div&gt;" style="shape=document;whiteSpace=wrap;html=1;boundedLbl=1;" vertex="1" parent="1">
          <mxGeometry x="350" y="55" width="120" height="80" as="geometry" />
        </mxCell>
        <mxCell id="WKRomC5Ls8OWtYJPz77l-19" value="" style="endArrow=none;html=1;rounded=0;fontSize=22;jumpSize=10;entryX=0.121;entryY=0.961;entryDx=0;entryDy=0;entryPerimeter=0;exitX=1;exitY=0;exitDx=0;exitDy=0;" edge="1" parent="1" source="WKRomC5Ls8OWtYJPz77l-12" target="WKRomC5Ls8OWtYJPz77l-17">
          <mxGeometry width="50" height="50" relative="1" as="geometry">
            <mxPoint x="320" y="175" as="sourcePoint" />
            <mxPoint x="370" y="125" as="targetPoint" />
          </mxGeometry>
        </mxCell>
        <mxCell id="WKRomC5Ls8OWtYJPz77l-21" value="" style="endArrow=none;html=1;rounded=0;fontSize=22;jumpSize=10;entryX=0.693;entryY=0.711;entryDx=0;entryDy=0;entryPerimeter=0;exitX=0.446;exitY=0.005;exitDx=0;exitDy=0;exitPerimeter=0;" edge="1" parent="1" source="WKRomC5Ls8OWtYJPz77l-14" target="WKRomC5Ls8OWtYJPz77l-17">
          <mxGeometry width="50" height="50" relative="1" as="geometry">
            <mxPoint x="450" y="135" as="sourcePoint" />
            <mxPoint x="440" y="115" as="targetPoint" />
          </mxGeometry>
        </mxCell>
        <mxCell id="WKRomC5Ls8OWtYJPz77l-24" value="" style="endArrow=classic;html=1;rounded=0;fontSize=22;jumpSize=10;" edge="1" parent="1" source="WKRomC5Ls8OWtYJPz77l-3" target="WKRomC5Ls8OWtYJPz77l-11">
          <mxGeometry width="50" height="50" relative="1" as="geometry">
            <mxPoint x="50" y="240" as="sourcePoint" />
            <mxPoint x="100" y="190" as="targetPoint" />
          </mxGeometry>
        </mxCell>
        <mxCell id="WKRomC5Ls8OWtYJPz77l-25" value="" style="endArrow=none;html=1;rounded=0;fontSize=22;jumpSize=10;entryX=0.425;entryY=0.961;entryDx=0;entryDy=0;entryPerimeter=0;exitX=0.617;exitY=-0.034;exitDx=0;exitDy=0;exitPerimeter=0;" edge="1" parent="1" source="WKRomC5Ls8OWtYJPz77l-13" target="WKRomC5Ls8OWtYJPz77l-17">
          <mxGeometry width="50" height="50" relative="1" as="geometry">
            <mxPoint x="390" y="175" as="sourcePoint" />
            <mxPoint x="440" y="125" as="targetPoint" />
          </mxGeometry>
        </mxCell>
        <mxCell id="WKRomC5Ls8OWtYJPz77l-26" value="&lt;div style=&quot;font-size: 16px;&quot;&gt;Верстка&lt;/div&gt;" style="shape=document;whiteSpace=wrap;html=1;boundedLbl=1;fontSize=16;" vertex="1" parent="1">
          <mxGeometry x="580" y="30" width="120" height="80" as="geometry" />
        </mxCell>
        <mxCell id="WKRomC5Ls8OWtYJPz77l-28" value="&lt;div style=&quot;font-size: 12px;&quot;&gt;Верстать простые макеты&lt;/div&gt;" style="ellipse;whiteSpace=wrap;html=1;aspect=fixed;fontSize=12;" vertex="1" parent="1">
          <mxGeometry x="520" y="137.5" width="80" height="80" as="geometry" />
        </mxCell>
        <mxCell id="WKRomC5Ls8OWtYJPz77l-30" value="&lt;div&gt;Курсы на Степике&lt;/div&gt;&lt;div&gt;закончить&lt;/div&gt;" style="ellipse;whiteSpace=wrap;html=1;aspect=fixed;fontSize=12;" vertex="1" parent="1">
          <mxGeometry x="610" y="110" width="80" height="80" as="geometry" />
        </mxCell>
        <mxCell id="WKRomC5Ls8OWtYJPz77l-31" value="&lt;div&gt;Основной и высший учебники Трепачёва допройти&lt;/div&gt;" style="ellipse;whiteSpace=wrap;html=1;aspect=fixed;fontSize=12;" vertex="1" parent="1">
          <mxGeometry x="710" y="125" width="105" height="105" as="geometry" />
        </mxCell>
        <mxCell id="WKRomC5Ls8OWtYJPz77l-33" value="" style="endArrow=none;html=1;rounded=0;fontSize=12;jumpSize=10;entryX=0.151;entryY=0.972;entryDx=0;entryDy=0;entryPerimeter=0;exitX=0.678;exitY=0.032;exitDx=0;exitDy=0;exitPerimeter=0;" edge="1" parent="1" source="WKRomC5Ls8OWtYJPz77l-28" target="WKRomC5Ls8OWtYJPz77l-26">
          <mxGeometry width="50" height="50" relative="1" as="geometry">
            <mxPoint x="560" y="150" as="sourcePoint" />
            <mxPoint x="610" y="100" as="targetPoint" />
          </mxGeometry>
        </mxCell>
        <mxCell id="WKRomC5Ls8OWtYJPz77l-34" value="" style="endArrow=none;html=1;rounded=0;fontSize=12;jumpSize=10;entryX=0.529;entryY=0.837;entryDx=0;entryDy=0;entryPerimeter=0;exitX=0.385;exitY=0.001;exitDx=0;exitDy=0;exitPerimeter=0;" edge="1" parent="1" source="WKRomC5Ls8OWtYJPz77l-30" target="WKRomC5Ls8OWtYJPz77l-26">
          <mxGeometry width="50" height="50" relative="1" as="geometry">
            <mxPoint x="600" y="150" as="sourcePoint" />
            <mxPoint x="650" y="100" as="targetPoint" />
          </mxGeometry>
        </mxCell>
        <mxCell id="WKRomC5Ls8OWtYJPz77l-35" value="" style="endArrow=none;html=1;rounded=0;fontSize=12;jumpSize=10;entryX=0.84;entryY=0.746;entryDx=0;entryDy=0;entryPerimeter=0;exitX=0;exitY=0;exitDx=0;exitDy=0;" edge="1" parent="1" source="WKRomC5Ls8OWtYJPz77l-31" target="WKRomC5Ls8OWtYJPz77l-26">
          <mxGeometry width="50" height="50" relative="1" as="geometry">
            <mxPoint x="670" y="137.5" as="sourcePoint" />
            <mxPoint x="720" y="87.5" as="targetPoint" />
          </mxGeometry>
        </mxCell>
        <mxCell id="WKRomC5Ls8OWtYJPz77l-37" value="Найти и пройти курсы по SASS и Bootstrap" style="ellipse;whiteSpace=wrap;html=1;fontSize=12;" vertex="1" parent="1">
          <mxGeometry x="660" y="270" width="120" height="80" as="geometry" />
        </mxCell>
        <mxCell id="WKRomC5Ls8OWtYJPz77l-38" value="" style="shape=flexArrow;endArrow=classic;html=1;rounded=0;fontSize=12;jumpSize=10;" edge="1" parent="1">
          <mxGeometry width="50" height="50" relative="1" as="geometry">
            <mxPoint x="649.83" y="217.5" as="sourcePoint" />
            <mxPoint x="649.7" y="247.5" as="targetPoint" />
          </mxGeometry>
        </mxCell>
        <mxCell id="WKRomC5Ls8OWtYJPz77l-43" value="" style="endArrow=none;dashed=1;html=1;rounded=0;fontSize=12;jumpSize=10;" edge="1" parent="1">
          <mxGeometry width="50" height="50" relative="1" as="geometry">
            <mxPoint x="280" y="540" as="sourcePoint" />
            <mxPoint x="280" y="-10" as="targetPoint" />
          </mxGeometry>
        </mxCell>
        <mxCell id="WKRomC5Ls8OWtYJPz77l-44" value="WEB" style="text;html=1;strokeColor=none;fillColor=none;align=center;verticalAlign=middle;whiteSpace=wrap;rounded=0;fontSize=22;" vertex="1" parent="1">
          <mxGeometry x="510" y="-30" width="60" height="30" as="geometry" />
        </mxCell>
        <mxCell id="WKRomC5Ls8OWtYJPz77l-45" value="Python" style="text;html=1;strokeColor=none;fillColor=none;align=center;verticalAlign=middle;whiteSpace=wrap;rounded=0;fontSize=22;" vertex="1" parent="1">
          <mxGeometry x="110" y="-30" width="60" height="30" as="geometry" />
        </mxCell>
        <mxCell id="WKRomC5Ls8OWtYJPz77l-46" value="&lt;div style=&quot;font-size: 12px;&quot;&gt;Django&lt;/div&gt;&lt;div style=&quot;font-size: 12px;&quot;&gt; Курсы Балакирева&lt;/div&gt;&lt;div style=&quot;font-size: 12px;&quot;&gt;&lt;br style=&quot;font-size: 12px;&quot;&gt;&lt;/div&gt;" style="ellipse;whiteSpace=wrap;html=1;fontSize=12;" vertex="1" parent="1">
          <mxGeometry x="210" y="410" width="120" height="80" as="geometry" />
        </mxCell>
        <mxCell id="WKRomC5Ls8OWtYJPz77l-50" value="&lt;div&gt;СЕНТЯБРЬ&lt;/div&gt;" style="text;html=1;strokeColor=none;fillColor=none;align=center;verticalAlign=middle;whiteSpace=wrap;rounded=0;fontSize=22;" vertex="1" parent="1">
          <mxGeometry x="-190" y="320" width="60" height="30" as="geometry" />
        </mxCell>
        <mxCell id="WKRomC5Ls8OWtYJPz77l-51" value="&lt;div&gt;Учебник Кантора&lt;/div&gt;&lt;div&gt;Часть 2&lt;br&gt;&lt;/div&gt;" style="ellipse;whiteSpace=wrap;html=1;" vertex="1" parent="1">
          <mxGeometry x="460" y="250" width="110" height="80" as="geometry" />
        </mxCell>
        <mxCell id="WKRomC5Ls8OWtYJPz77l-55" value="Найти и пройти курс по JQuery" style="ellipse;whiteSpace=wrap;html=1;fontSize=12;" vertex="1" parent="1">
          <mxGeometry x="340" y="330" width="120" height="80" as="geometry" />
        </mxCell>
        <mxCell id="WKRomC5Ls8OWtYJPz77l-56" value="&lt;div&gt;Регулярные выражения Курс Балакирева&lt;/div&gt;" style="ellipse;whiteSpace=wrap;html=1;" vertex="1" parent="1">
          <mxGeometry y="330" width="120" height="80" as="geometry" />
        </mxCell>
        <mxCell id="WKRomC5Ls8OWtYJPz77l-58" value="&lt;div style=&quot;font-size: 12px;&quot;&gt;Jinja&lt;/div&gt;" style="ellipse;whiteSpace=wrap;html=1;aspect=fixed;fontSize=12;" vertex="1" parent="1">
          <mxGeometry x="180" y="290" width="80" height="80" as="geometry" />
        </mxCell>
        <mxCell id="WKRomC5Ls8OWtYJPz77l-63" value="" style="shape=flexArrow;endArrow=classic;html=1;rounded=0;fontSize=12;jumpSize=10;" edge="1" parent="1" target="WKRomC5Ls8OWtYJPz77l-46">
          <mxGeometry width="50" height="50" relative="1" as="geometry">
            <mxPoint x="210" y="390" as="sourcePoint" />
            <mxPoint x="260" y="340" as="targetPoint" />
          </mxGeometry>
        </mxCell>
        <mxCell id="WKRomC5Ls8OWtYJPz77l-64" value="Верстать более сложные макеты" style="ellipse;whiteSpace=wrap;html=1;aspect=fixed;fontSize=12;" vertex="1" parent="1">
          <mxGeometry x="590" y="340" width="80" height="80" as="geometry" />
        </mxCell>
        <mxCell id="WKRomC5Ls8OWtYJPz77l-67" value="ОКТЯБРЬ" style="text;html=1;strokeColor=none;fillColor=none;align=center;verticalAlign=middle;whiteSpace=wrap;rounded=0;fontSize=22;" vertex="1" parent="1">
          <mxGeometry x="-190" y="460" width="60" height="30" as="geometry" />
        </mxCell>
        <mxCell id="WKRomC5Ls8OWtYJPz77l-69" value="&lt;div&gt;Учебник VUE.JS Трепачёва&lt;/div&gt;" style="ellipse;whiteSpace=wrap;html=1;aspect=fixed;" vertex="1" parent="1">
          <mxGeometry x="490" y="410" width="80" height="80" as="geometry" />
        </mxCell>
      </root>
    </mxGraphModel>
  </diagram>
</mxfile>
